<?xml version="1.0" standalone="no"?><!DOCTYPE svg PUBLIC "-//W3C//DTD SVG 1.1//EN" "http://www.w3.org/Graphics/SVG/1.1/DTD/svg11.dtd"><svg t="1557734282833" class="icon" style="" viewBox="0 0 1024 1024" version="1.1" xmlns="http://www.w3.org/2000/svg" p-id="1237" xmlns:xlink="http://www.w3.org/1999/xlink" width="32" height="32"><defs><style type="text/css"></style></defs><path d="M524.96 1009.28a51.68 51.68 0 0 1-10.88-1.28H488.16c-14.88 0-42.24 0-49.28-23.84a134.24 134.24 0 0 1-3.2-26.88 185.28 185.28 0 0 1-60.96-20.16 221.76 221.76 0 0 1-23.04-16 158.72 158.72 0 0 1-73.28 31.2 309.28 309.28 0 0 1-35.84 2.24c-36.96 0-48-8-53.44-16a28.8 28.8 0 0 1-3.84-26.56c2.88-8.48 13.44-44.16 19.84-69.92-45.12 2.24-119.68 5.92-126.72 5.92a49.76 49.76 0 0 1-40.8-22.88 39.68 39.68 0 0 1-3.52-38.56c5.44-12 65.76-112 92.32-138.88l5.92-5.92a261.76 261.76 0 0 0-43.52-9.28c-16-1.76-68.48-9.6-84.16-34.88a29.92 29.92 0 0 1-2.88-26.08A377.6 377.6 0 0 1 80 473.44c14.4-11.52 28-22.4 38.72-30.72a487.52 487.52 0 0 1-57.44-92.64c-25.44-54.4-35.52-100-27.04-122.08a32 32 0 0 1 17.12-17.92 69.44 69.44 0 0 1 27.2-2.88c16 0 42.72 0 68.96 1.44 23.36 0 46.72 1.44 63.04 1.44h34.24c-2.4-24.16-6.08-60.64-9.6-84.32-1.6-11.68-3.36-22.08-4.8-30.88-5.44-34.08-9.44-58.72 18.24-64a34.24 34.24 0 0 1 7.2 0 496 496 0 0 1 144 33.28 305.44 305.44 0 0 1 89.76 48 604 604 0 0 1 136.16-72.16A336 336 0 0 1 730.08 14.72 42.72 42.72 0 0 1 768 32c6.24 10.72 6.24 10.72-8.8 89.44-4.48 23.04-10.88 56.48-14.72 80a379.52 379.52 0 0 0 67.36-14.4c22.24-7.2 52-20.16 76-30.56 34.24-14.72 42.56-18.24 51.36-18.24h2.72a29.44 29.44 0 0 1 22.72 14.72c13.12 22.08 10.24 85.28-17.28 148.64l-10.56 24 5.44-2.24a103.36 103.36 0 0 1 38.72-10.24A35.04 35.04 0 0 1 1016.32 336a269.12 269.12 0 0 1-45.12 193.44 419.36 419.36 0 0 1-50.24 57.28l7.68 1.76c15.04 3.2 27.84 5.12 38.24 6.88 27.68 4.48 58.88 9.6 57.28 41.12a209.92 209.92 0 0 1-98.56 140L884.16 800l-13.28 7.84a873.92 873.92 0 0 1-1.92 117.12c-6.4 21.6-34.4 36.8-67.84 36.8a128 128 0 0 1-22.56-1.76 372.96 372.96 0 0 1-102.24-34.72c-2.88-1.92-5.76-4.16-8.32-6.08-19.36 10.08-48 24.8-58.88 28.96l-8.8 3.04c0 30.88-1.76 33.44-4.16 38.24A38.08 38.08 0 0 1 561.12 1008a39.68 39.68 0 0 1-10.56-1.44h-2.88a80 80 0 0 0-11.04 0.8 77.76 77.76 0 0 1-11.68 1.92z" fill="#FFFFFF" p-id="1238"></path><path d="M157.76 446.88a448 448 0 0 1-72-108.32c-30.4-64.8-30.72-100.8-24-103.36s104.32 1.76 148.8 2.08 64 0 64-2.56-6.56-73.76-12.16-112.8-11.2-64-7.84-64.96a444 444 0 0 1 135.84 32c80 29.28 96 57.76 96 57.76A606.08 606.08 0 0 1 634.24 64c77.44-27.2 108.16-23.36 110.72-18.88s-36.48 182.24-29.76 184.32a355.36 355.36 0 0 0 105.44-17.44c43.68-14.24 112-48 119.2-48s13.12 56.32-16.96 125.76-37.28 78.72-34.56 80a448 448 0 0 0 64.96-21.76c22.56-9.44 34.4-10.88 37.12-2.88a246.24 246.24 0 0 1-41.12 168.32c-51.2 68.16-73.76 71.68-75.84 74.4s0 17.28 49.44 27.52 74.4 9.44 73.92 20a186.08 186.08 0 0 1-84.8 117.92c-65.44 39.04-69.44 39.04-68 44.32s2.24 112 0 120.16-24.48 22.08-59.68 16a355.52 355.52 0 0 1-91.84-30.56 131.84 131.84 0 0 1-19.36-16s-58.88 31.04-72.8 36.48a117.6 117.6 0 0 1-25.92 6.88s0 45.12-1.6 48a16 16 0 0 1-13.92 3.36 78.88 78.88 0 0 0-25.28 0 33.92 33.92 0 0 1-16 0 160 160 0 0 0-25.28 0c-7.36 0-25.28 0-26.56-4.48s-3.68-43.2-3.68-43.2a204.32 204.32 0 0 1-72.48-19.36A136.8 136.8 0 0 1 352 885.12a150.56 150.56 0 0 1-77.44 40.48c-42.4 4.96-65.12 0-64-3.52s33.76-109.28 25.76-108.48-146.72 6.4-158.08 6.56-24-13.12-19.52-23.04 64-108.16 86.72-130.88 34.88-36.8 34.88-36.8a356 356 0 0 0-88.48-24.48c-43.84-4.96-66.56-19.36-64-24.8a370.24 370.24 0 0 1 69.76-85.6c31.68-26.08 60.16-47.68 60.16-47.68z" fill="#1D1D1B" p-id="1239"></path><path d="M93.76 261.44c4.8-4.8 215.84 0.96 216.48-3.04S280.32 80 286.4 80a733.92 733.92 0 0 1 144 59.36c42.08 26.88 44.16 36.8 55.36 36.16s64-51.04 134.88-78.08 94.72-28.64 94.72-25.92-22.88 116.8-27.36 138.08-7.04 43.84-2.24 45.12a446.72 446.72 0 0 0 132-16c63.04-17.76 108-42.72 108.64-38.08a873.28 873.28 0 0 1-57.92 145.28c-19.04 29.44-26.88 54.72-22.88 56.64s26.56-4.8 69.6-17.76 48-15.04 48-12.96a216.8 216.8 0 0 1-35.2 122.24 526.56 526.56 0 0 1-88.96 93.76 67.04 67.04 0 0 0 32 41.6c18.72 8.48 91.2 19.2 90.56 23.2a200.96 200.96 0 0 1-84.96 96c-56.16 28.96-62.88 32-64 36.96s2.88 116.16-1.76 116.96a417.6 417.6 0 0 1-80-14.72c-22.72-7.84-32-15.04-32-16.96a338.88 338.88 0 0 0 45.28-72.16 188 188 0 0 0 12.96-48s73.12 3.36 80-48-30.24-60.96-40.8-62.72a99.52 99.52 0 0 0-21.28-2.56s18.56-164.96-37.28-256-115.36-139.2-236.16-134.24-185.44 68.48-215.04 192-21.76 194.08-21.76 194.08-59.04 2.4-57.12 75.52 78.88 58.56 78.88 58.56a112 112 0 0 0 17.44 62.4c19.52 29.76 28.16 40.96 28.16 40.96s-77.92 29.76-78.56 25.28 20-72.64 17.28-80-16-21.76-20.8-21.76-155.36 6.56-156.8 0 33.44-60 68.32-104.16 52-60.8 51.36-66.88-24.16-33.76-75.36-41.28-71.84-5.92-70.56-8.64a528 528 0 0 1 85.6-87.04 122.72 122.72 0 0 0 40.32-34.88A565.92 565.92 0 0 1 121.76 352c-28.32-53.28-29.92-88.48-28-90.56z" fill="#85BFE9" p-id="1240"></path><path d="M328.48 192a659.68 659.68 0 0 1-13.12-72.32 323.52 323.52 0 0 1 58.56 22.08c0 2.72 0 13.92-1.92 13.92a269.92 269.92 0 0 0-34.56-7.04c0 1.92 5.6 31.2 4.96 33.12s-12.64 12-13.92 10.24zM576 152a253.12 253.12 0 0 1 52.16-34.24c19.2-6.72 16-10.08 19.2-6.72s7.36 13.92 5.44 16a320 320 0 0 0-48 20.96c-15.2 10.08-16 16-19.84 14.72s-7.04-8-8.96-10.72z" fill="#1D1D1B" p-id="1241"></path><path d="M263.68 662.72a432 432 0 0 1 11.2 77.6c-1.92 0-37.92-4.32-38.08-30.24a60 60 0 0 1 26.88-47.36zM775.84 663.36c2.08-2.08 37.92 0 32 31.04s-44.64 41.6-45.44 37.44a358.4 358.4 0 0 1 10.4-37.28c4.48-18.72-0.96-27.2 3.04-31.2zM499.2 275.52c64 0 141.6 3.52 202.08 109.28s53.92 189.6 37.44 284.16-42.72 151.2-59.04 169.12a182.24 182.24 0 0 1-20.48 20.8 250.56 250.56 0 0 0-39.36-25.6c-3.36 1.28-8 6.08-6.56 8.64s32 24.32 30.72 26.4-18.56 14.08-20.48 12.16a416 416 0 0 0-39.36-30.24c-2.72 0-10.56 6.08-9.28 8.64s38.08 26.24 34.08 28.96-25.12 12.16-27.84 10.24-30.88-31.04-33.44-30.88-9.92 4-7.84 7.36 22.88 28.32 22.88 28.32a497.44 497.44 0 0 1-130.24-1.6c-59.2-10.88-100.96-76.32-120-145.92s-19.04-217.76 1.6-299.68 56.8-179.2 185.12-180.16zM483.68 933.92c1.92-1.92 20 1.12 37.92 0s26.56-0.8 26.56 1.12 2.24 29.28 0 29.92a48 48 0 0 1-24.64 0.8 48 48 0 0 0-24-5.12c-6.56 1.44-10.56 6.08-12.64 3.36a98.56 98.56 0 0 1-3.2-30.08z" fill="#E6E4DA" p-id="1242"></path><path d="M367.04 372.96c5.28-1.92 48-27.68 150.56-27.04s160.96 28 162.4 36 0 39.2-5.6 39.2-37.44-22.4-155.04-21.12-151.36 29.28-157.92 24.8-13.6-45.12 5.6-51.84z" fill="#1D1D1B" p-id="1243"></path><path d="M373.76 384c4-8.32 52.32-27.04 149.28-22.4s142.4 20.8 142.4 26.08 3.36 13.92 0 13.92a464 464 0 0 0-146.88-17.6 690.88 690.88 0 0 0-141.92 20.32c-5.44-1.6-4.16-18.24-2.88-20.32z" fill="#85BFE9" p-id="1244"></path><path d="M562.24 448c44.64-18.24 128-4.96 124.96 86.08s-114.08 103.84-151.68 52.96-19.68-120.32 26.72-139.04z" fill="#1D1D1B" p-id="1245"></path><path d="M569.28 462.24c36.64-15.04 104.64-4.16 102.56 70.72S578.08 618.08 547.2 576s-16-98.24 22.08-113.76z" fill="#FFFFFF" p-id="1246"></path><path d="M379.84 445.6c41.12-16.8 117.44-4.64 115.04 80s-105.12 96-139.84 48.8-17.92-111.36 24.8-128.8z" fill="#1D1D1B" p-id="1247"></path><path d="M386.4 458.88c33.76-13.76 96-3.84 94.56 65.12s-86.4 78.56-114.88 40.16-14.08-90.88 20.32-105.28z" fill="#FFFFFF" p-id="1248"></path><path d="M408.16 509.6a17.12 17.12 0 1 1-5.28 27.2 17.92 17.92 0 0 1 5.28-27.2zM596.32 516.64a17.12 17.12 0 1 1-5.28 27.2 17.92 17.92 0 0 1 5.28-27.2zM350.72 603.84a86.88 86.88 0 0 0 48 20.64 143.04 143.04 0 0 0 49.28-4.96c3.36 0.8 3.36 10.4 3.2 12.96a105.12 105.12 0 0 1-60.16 6.24 80 80 0 0 1-48-23.04c-1.44-2.72 5.76-11.84 7.68-11.84zM587.52 633.28a86.88 86.88 0 0 0 52.32 0 143.04 143.04 0 0 0 43.2-23.36c3.36 0 7.2 8.32 8 10.72a105.12 105.12 0 0 1-53.12 28.96 80 80 0 0 1-52.48-3.04c-2.88-1.28 0.16-12.64 2.08-13.28zM476.48 636.64c0-2.08 11.68-4.8 12.48-1.6s-2.24 102.08 25.12 101.44 18.24-101.76 20.8-103.36a35.68 35.68 0 0 1 12.64 0s15.2 121.44-32.8 120.8-38.08-116-38.24-117.28zM354.4 788.8a84.96 84.96 0 0 1 3.04-28c3.84-8.64 16-18.72 18.4-18.08s8 7.2 6.08 9.92-13.92 9.44-14.4 17.44 0 21.92-1.76 22.56a19.52 19.52 0 0 1-11.36-3.84zM625.12 744.16s8.48-10.08 11.2-10.08a43.2 43.2 0 0 1 24.16 23.68c6.08 16 6.24 31.2 1.6 32s-12.64 2.08-12.64 0 6.56-20-0.96-30.56a53.28 53.28 0 0 0-23.36-15.04zM390.08 777.28c3.2 1.12 35.36 23.04 110.4 20.32a443.36 443.36 0 0 0 124.64-24.96 29.76 29.76 0 0 1 2.72 13.28c0 2.72-53.6 29.6-129.92 28.32s-111.04-19.68-112-22.4 2.24-15.2 4.16-14.56z" fill="#1D1D1B" p-id="1249"></path></svg>